{
	"asset":{
		"generator":"Khronos glTF Blender I/O v4.2.69",
		"version":"2.0"
	},
	"scene":0,
	"scenes":[
		{
			"name":"Scene",
			"nodes":[
				0,
				1,
				2,
				3,
				4,
				6
			]
		}
	],
	"nodes":[
		{
			"mesh":0,
			"name":"Body",
			"rotation":[
				0,
				-0.08715575188398361,
				0,
				0.9961947202682495
			],
			"translation":[
				0,
				0.9375337958335876,
				0
			]
		},
		{
			"mesh":1,
			"name":"Leg.L",
			"rotation":[
				0.3826834261417389,
				0,
				0,
				0.9238795638084412
			],
			"translation":[
				-0.1937321126461029,
				0.5124820470809937,
				0
			]
		},
		{
			"mesh":2,
			"name":"Leg.R",
			"rotation":[
				-0.3826834261417389,
				0,
				0,
				0.9238795638084412
			],
			"translation":[
				0.19373200833797455,
				0.5124820470809937,
				0
			]
		},
		{
			"mesh":3,
			"name":"Arm.L",
			"rotation":[
				-0.3826834261417389,
				0,
				0,
				0.9238795638084412
			],
			"translation":[
				-0.38552987575531006,
				1.2780073881149292,
				0
			]
		},
		{
			"mesh":4,
			"name":"Head",
			"translation":[
				0,
				1.5176985263824463,
				0
			]
		},
		{
			"name":"AttachPoint",
			"translation":[
				0,
				-0.5200000405311584,
				0
			]
		},
		{
			"children":[
				5
			],
			"mesh":5,
			"name":"Arm.R",
			"rotation":[
				0.3826834261417389,
				0,
				0,
				0.9238795638084412
			],
			"translation":[
				0.3855299949645996,
				1.2780073881149292,
				0
			]
		}
	],
	"animations":[
		{
			"channels":[
				{
					"sampler":0,
					"target":{
						"node":0,
						"path":"translation"
					}
				},
				{
					"sampler":1,
					"target":{
						"node":0,
						"path":"rotation"
					}
				},
				{
					"sampler":2,
					"target":{
						"node":1,
						"path":"translation"
					}
				},
				{
					"sampler":3,
					"target":{
						"node":1,
						"path":"rotation"
					}
				},
				{
					"sampler":4,
					"target":{
						"node":2,
						"path":"translation"
					}
				},
				{
					"sampler":5,
					"target":{
						"node":2,
						"path":"rotation"
					}
				},
				{
					"sampler":6,
					"target":{
						"node":3,
						"path":"translation"
					}
				},
				{
					"sampler":7,
					"target":{
						"node":3,
						"path":"rotation"
					}
				},
				{
					"sampler":8,
					"target":{
						"node":3,
						"path":"scale"
					}
				},
				{
					"sampler":9,
					"target":{
						"node":4,
						"path":"translation"
					}
				},
				{
					"sampler":10,
					"target":{
						"node":4,
						"path":"rotation"
					}
				},
				{
					"sampler":11,
					"target":{
						"node":4,
						"path":"scale"
					}
				},
				{
					"sampler":12,
					"target":{
						"node":6,
						"path":"translation"
					}
				},
				{
					"sampler":13,
					"target":{
						"node":6,
						"path":"rotation"
					}
				},
				{
					"sampler":14,
					"target":{
						"node":6,
						"path":"scale"
					}
				}
			],
			"name":"Stand",
			"samplers":[
				{
					"input":24,
					"interpolation":"LINEAR",
					"output":25
				},
				{
					"input":24,
					"interpolation":"LINEAR",
					"output":26
				},
				{
					"input":24,
					"interpolation":"LINEAR",
					"output":27
				},
				{
					"input":24,
					"interpolation":"LINEAR",
					"output":28
				},
				{
					"input":24,
					"interpolation":"LINEAR",
					"output":29
				},
				{
					"input":24,
					"interpolation":"LINEAR",
					"output":30
				},
				{
					"input":31,
					"interpolation":"STEP",
					"output":32
				},
				{
					"input":33,
					"interpolation":"LINEAR",
					"output":34
				},
				{
					"input":31,
					"interpolation":"STEP",
					"output":35
				},
				{
					"input":31,
					"interpolation":"STEP",
					"output":36
				},
				{
					"input":33,
					"interpolation":"LINEAR",
					"output":37
				},
				{
					"input":31,
					"interpolation":"STEP",
					"output":38
				},
				{
					"input":31,
					"interpolation":"STEP",
					"output":39
				},
				{
					"input":33,
					"interpolation":"LINEAR",
					"output":40
				},
				{
					"input":31,
					"interpolation":"STEP",
					"output":41
				}
			]
		},
		{
			"channels":[
				{
					"sampler":0,
					"target":{
						"node":0,
						"path":"translation"
					}
				},
				{
					"sampler":1,
					"target":{
						"node":0,
						"path":"rotation"
					}
				},
				{
					"sampler":2,
					"target":{
						"node":0,
						"path":"scale"
					}
				},
				{
					"sampler":3,
					"target":{
						"node":1,
						"path":"translation"
					}
				},
				{
					"sampler":4,
					"target":{
						"node":1,
						"path":"rotation"
					}
				},
				{
					"sampler":5,
					"target":{
						"node":1,
						"path":"scale"
					}
				},
				{
					"sampler":6,
					"target":{
						"node":2,
						"path":"translation"
					}
				},
				{
					"sampler":7,
					"target":{
						"node":2,
						"path":"rotation"
					}
				},
				{
					"sampler":8,
					"target":{
						"node":2,
						"path":"scale"
					}
				},
				{
					"sampler":9,
					"target":{
						"node":3,
						"path":"translation"
					}
				},
				{
					"sampler":10,
					"target":{
						"node":3,
						"path":"rotation"
					}
				},
				{
					"sampler":11,
					"target":{
						"node":3,
						"path":"scale"
					}
				},
				{
					"sampler":12,
					"target":{
						"node":4,
						"path":"translation"
					}
				},
				{
					"sampler":13,
					"target":{
						"node":4,
						"path":"rotation"
					}
				},
				{
					"sampler":14,
					"target":{
						"node":4,
						"path":"scale"
					}
				},
				{
					"sampler":15,
					"target":{
						"node":6,
						"path":"translation"
					}
				},
				{
					"sampler":16,
					"target":{
						"node":6,
						"path":"rotation"
					}
				},
				{
					"sampler":17,
					"target":{
						"node":6,
						"path":"scale"
					}
				}
			],
			"name":"Walk",
			"samplers":[
				{
					"input":42,
					"interpolation":"LINEAR",
					"output":43
				},
				{
					"input":42,
					"interpolation":"LINEAR",
					"output":44
				},
				{
					"input":45,
					"interpolation":"STEP",
					"output":46
				},
				{
					"input":42,
					"interpolation":"LINEAR",
					"output":47
				},
				{
					"input":42,
					"interpolation":"LINEAR",
					"output":48
				},
				{
					"input":45,
					"interpolation":"STEP",
					"output":49
				},
				{
					"input":42,
					"interpolation":"LINEAR",
					"output":50
				},
				{
					"input":42,
					"interpolation":"LINEAR",
					"output":51
				},
				{
					"input":45,
					"interpolation":"STEP",
					"output":52
				},
				{
					"input":42,
					"interpolation":"LINEAR",
					"output":53
				},
				{
					"input":42,
					"interpolation":"LINEAR",
					"output":54
				},
				{
					"input":45,
					"interpolation":"STEP",
					"output":55
				},
				{
					"input":42,
					"interpolation":"LINEAR",
					"output":56
				},
				{
					"input":45,
					"interpolation":"STEP",
					"output":57
				},
				{
					"input":45,
					"interpolation":"STEP",
					"output":58
				},
				{
					"input":42,
					"interpolation":"LINEAR",
					"output":59
				},
				{
					"input":42,
					"interpolation":"LINEAR",
					"output":60
				},
				{
					"input":45,
					"interpolation":"STEP",
					"output":61
				}
			]
		}
	],
	"materials":[
		{
			"doubleSided":true,
			"name":"Material",
			"pbrMetallicRoughness":{
				"baseColorTexture":{
					"index":0
				},
				"roughnessFactor":0
			}
		},
		{
			"doubleSided":true,
			"name":"Face",
			"pbrMetallicRoughness":{
				"baseColorTexture":{
					"index":1
				},
				"metallicFactor":0,
				"roughnessFactor":0.5
			}
		}
	],
	"meshes":[
		{
			"name":"Cube",
			"primitives":[
				{
					"attributes":{
						"POSITION":0,
						"NORMAL":1,
						"TEXCOORD_0":2
					},
					"indices":3,
					"material":0
				}
			]
		},
		{
			"name":"Cube.001",
			"primitives":[
				{
					"attributes":{
						"POSITION":4,
						"NORMAL":5,
						"TEXCOORD_0":6
					},
					"indices":7,
					"material":0
				}
			]
		},
		{
			"name":"Cube.002",
			"primitives":[
				{
					"attributes":{
						"POSITION":8,
						"NORMAL":9,
						"TEXCOORD_0":10
					},
					"indices":7,
					"material":0
				}
			]
		},
		{
			"name":"Cube.003",
			"primitives":[
				{
					"attributes":{
						"POSITION":11,
						"NORMAL":12,
						"TEXCOORD_0":13
					},
					"indices":7,
					"material":0
				}
			]
		},
		{
			"name":"Cube.005",
			"primitives":[
				{
					"attributes":{
						"POSITION":14,
						"NORMAL":15,
						"TEXCOORD_0":16
					},
					"indices":3,
					"material":0
				},
				{
					"attributes":{
						"POSITION":17,
						"NORMAL":18,
						"TEXCOORD_0":19
					},
					"indices":20,
					"material":1
				}
			]
		},
		{
			"name":"Cube.006",
			"primitives":[
				{
					"attributes":{
						"POSITION":21,
						"NORMAL":22,
						"TEXCOORD_0":23
					},
					"indices":7,
					"material":0
				}
			]
		}
	],
	"textures":[
		{
			"sampler":0,
			"source":0
		},
		{
			"sampler":0,
			"source":1
		}
	],
	"images":[
		{
			"mimeType":"image/png",
			"name":"DiamondSkin",
			"uri":"DiamondSkin.png"
		},
		{
			"mimeType":"image/png",
			"name":"face",
			"uri":"face.png"
		}
	],
	"accessors":[
		{
			"bufferView":0,
			"componentType":5126,
			"count":24,
			"max":[
				0.28928014636039734,
				0.4113171696662903,
				0.1620863825082779
			],
			"min":[
				-0.28928014636039734,
				-0.4113171696662903,
				-0.1620863825082779
			],
			"type":"VEC3"
		},
		{
			"bufferView":1,
			"componentType":5126,
			"count":24,
			"type":"VEC3"
		},
		{
			"bufferView":2,
			"componentType":5126,
			"count":24,
			"type":"VEC2"
		},
		{
			"bufferView":3,
			"componentType":5123,
			"count":36,
			"type":"SCALAR"
		},
		{
			"bufferView":4,
			"componentType":5126,
			"count":24,
			"max":[
				0.06259322911500931,
				0,
				0.07984744012355804
			],
			"min":[
				-0.06259319931268692,
				-0.4521732032299042,
				-0.07984744012355804
			],
			"type":"VEC3"
		},
		{
			"bufferView":5,
			"componentType":5126,
			"count":24,
			"type":"VEC3"
		},
		{
			"bufferView":6,
			"componentType":5126,
			"count":24,
			"type":"VEC2"
		},
		{
			"bufferView":7,
			"componentType":5123,
			"count":36,
			"type":"SCALAR"
		},
		{
			"bufferView":8,
			"componentType":5126,
			"count":24,
			"max":[
				0.06259319931268692,
				0,
				0.07984744012355804
			],
			"min":[
				-0.06259322911500931,
				-0.4521732032299042,
				-0.07984744012355804
			],
			"type":"VEC3"
		},
		{
			"bufferView":9,
			"componentType":5126,
			"count":24,
			"type":"VEC3"
		},
		{
			"bufferView":10,
			"componentType":5126,
			"count":24,
			"type":"VEC2"
		},
		{
			"bufferView":11,
			"componentType":5126,
			"count":24,
			"max":[
				0.055460501462221146,
				0,
				0.049661166965961456
			],
			"min":[
				-0.05546047165989876,
				-0.5862029194831848,
				-0.049661166965961456
			],
			"type":"VEC3"
		},
		{
			"bufferView":12,
			"componentType":5126,
			"count":24,
			"type":"VEC3"
		},
		{
			"bufferView":13,
			"componentType":5126,
			"count":24,
			"type":"VEC2"
		},
		{
			"bufferView":14,
			"componentType":5126,
			"count":24,
			"max":[
				0.13769979774951935,
				0.14574232697486877,
				0.10892806947231293
			],
			"min":[
				-0.13769979774951935,
				-0.14574232697486877,
				-0.10892806947231293
			],
			"type":"VEC3"
		},
		{
			"bufferView":15,
			"componentType":5126,
			"count":24,
			"type":"VEC3"
		},
		{
			"bufferView":16,
			"componentType":5126,
			"count":24,
			"type":"VEC2"
		},
		{
			"bufferView":17,
			"componentType":5126,
			"count":4,
			"max":[
				0.12918183207511902,
				0.1377241611480713,
				-0.11295865476131439
			],
			"min":[
				-0.13093414902687073,
				-0.12239181995391846,
				-0.11295868456363678
			],
			"type":"VEC3"
		},
		{
			"bufferView":18,
			"componentType":5126,
			"count":4,
			"type":"VEC3"
		},
		{
			"bufferView":19,
			"componentType":5126,
			"count":4,
			"type":"VEC2"
		},
		{
			"bufferView":20,
			"componentType":5123,
			"count":6,
			"type":"SCALAR"
		},
		{
			"bufferView":21,
			"componentType":5126,
			"count":24,
			"max":[
				0.055460501462221146,
				0,
				0.049661166965961456
			],
			"min":[
				-0.05546047165989876,
				-0.5862029194831848,
				-0.049661166965961456
			],
			"type":"VEC3"
		},
		{
			"bufferView":22,
			"componentType":5126,
			"count":24,
			"type":"VEC3"
		},
		{
			"bufferView":23,
			"componentType":5126,
			"count":24,
			"type":"VEC2"
		},
		{
			"bufferView":24,
			"componentType":5126,
			"count":1,
			"max":[
				0.016666666666666666
			],
			"min":[
				0.016666666666666666
			],
			"type":"SCALAR"
		},
		{
			"bufferView":25,
			"componentType":5126,
			"count":1,
			"type":"VEC3"
		},
		{
			"bufferView":26,
			"componentType":5126,
			"count":1,
			"type":"VEC4"
		},
		{
			"bufferView":27,
			"componentType":5126,
			"count":1,
			"type":"VEC3"
		},
		{
			"bufferView":28,
			"componentType":5126,
			"count":1,
			"type":"VEC4"
		},
		{
			"bufferView":29,
			"componentType":5126,
			"count":1,
			"type":"VEC3"
		},
		{
			"bufferView":30,
			"componentType":5126,
			"count":1,
			"type":"VEC4"
		},
		{
			"bufferView":31,
			"componentType":5126,
			"count":2,
			"max":[
				0.6666666666666666
			],
			"min":[
				0.016666666666666666
			],
			"type":"SCALAR"
		},
		{
			"bufferView":32,
			"componentType":5126,
			"count":2,
			"type":"VEC3"
		},
		{
			"bufferView":33,
			"componentType":5126,
			"count":40,
			"max":[
				0.6666666666666666
			],
			"min":[
				0.016666666666666666
			],
			"type":"SCALAR"
		},
		{
			"bufferView":34,
			"componentType":5126,
			"count":40,
			"type":"VEC4"
		},
		{
			"bufferView":35,
			"componentType":5126,
			"count":2,
			"type":"VEC3"
		},
		{
			"bufferView":36,
			"componentType":5126,
			"count":2,
			"type":"VEC3"
		},
		{
			"bufferView":37,
			"componentType":5126,
			"count":40,
			"type":"VEC4"
		},
		{
			"bufferView":38,
			"componentType":5126,
			"count":2,
			"type":"VEC3"
		},
		{
			"bufferView":39,
			"componentType":5126,
			"count":2,
			"type":"VEC3"
		},
		{
			"bufferView":40,
			"componentType":5126,
			"count":40,
			"type":"VEC4"
		},
		{
			"bufferView":41,
			"componentType":5126,
			"count":2,
			"type":"VEC3"
		},
		{
			"bufferView":42,
			"componentType":5126,
			"count":41,
			"max":[
				0.6666666666666666
			],
			"min":[
				0
			],
			"type":"SCALAR"
		},
		{
			"bufferView":43,
			"componentType":5126,
			"count":41,
			"type":"VEC3"
		},
		{
			"bufferView":44,
			"componentType":5126,
			"count":41,
			"type":"VEC4"
		},
		{
			"bufferView":45,
			"componentType":5126,
			"count":2,
			"max":[
				0.6666666666666666
			],
			"min":[
				0
			],
			"type":"SCALAR"
		},
		{
			"bufferView":46,
			"componentType":5126,
			"count":2,
			"type":"VEC3"
		},
		{
			"bufferView":47,
			"componentType":5126,
			"count":41,
			"type":"VEC3"
		},
		{
			"bufferView":48,
			"componentType":5126,
			"count":41,
			"type":"VEC4"
		},
		{
			"bufferView":49,
			"componentType":5126,
			"count":2,
			"type":"VEC3"
		},
		{
			"bufferView":50,
			"componentType":5126,
			"count":41,
			"type":"VEC3"
		},
		{
			"bufferView":51,
			"componentType":5126,
			"count":41,
			"type":"VEC4"
		},
		{
			"bufferView":52,
			"componentType":5126,
			"count":2,
			"type":"VEC3"
		},
		{
			"bufferView":53,
			"componentType":5126,
			"count":41,
			"type":"VEC3"
		},
		{
			"bufferView":54,
			"componentType":5126,
			"count":41,
			"type":"VEC4"
		},
		{
			"bufferView":55,
			"componentType":5126,
			"count":2,
			"type":"VEC3"
		},
		{
			"bufferView":56,
			"componentType":5126,
			"count":41,
			"type":"VEC3"
		},
		{
			"bufferView":57,
			"componentType":5126,
			"count":2,
			"type":"VEC4"
		},
		{
			"bufferView":58,
			"componentType":5126,
			"count":2,
			"type":"VEC3"
		},
		{
			"bufferView":59,
			"componentType":5126,
			"count":41,
			"type":"VEC3"
		},
		{
			"bufferView":60,
			"componentType":5126,
			"count":41,
			"type":"VEC4"
		},
		{
			"bufferView":61,
			"componentType":5126,
			"count":2,
			"type":"VEC3"
		}
	],
	"bufferViews":[
		{
			"buffer":0,
			"byteLength":288,
			"byteOffset":0,
			"target":34962
		},
		{
			"buffer":0,
			"byteLength":288,
			"byteOffset":288,
			"target":34962
		},
		{
			"buffer":0,
			"byteLength":192,
			"byteOffset":576,
			"target":34962
		},
		{
			"buffer":0,
			"byteLength":72,
			"byteOffset":768,
			"target":34963
		},
		{
			"buffer":0,
			"byteLength":288,
			"byteOffset":840,
			"target":34962
		},
		{
			"buffer":0,
			"byteLength":288,
			"byteOffset":1128,
			"target":34962
		},
		{
			"buffer":0,
			"byteLength":192,
			"byteOffset":1416,
			"target":34962
		},
		{
			"buffer":0,
			"byteLength":72,
			"byteOffset":1608,
			"target":34963
		},
		{
			"buffer":0,
			"byteLength":288,
			"byteOffset":1680,
			"target":34962
		},
		{
			"buffer":0,
			"byteLength":288,
			"byteOffset":1968,
			"target":34962
		},
		{
			"buffer":0,
			"byteLength":192,
			"byteOffset":2256,
			"target":34962
		},
		{
			"buffer":0,
			"byteLength":288,
			"byteOffset":2448,
			"target":34962
		},
		{
			"buffer":0,
			"byteLength":288,
			"byteOffset":2736,
			"target":34962
		},
		{
			"buffer":0,
			"byteLength":192,
			"byteOffset":3024,
			"target":34962
		},
		{
			"buffer":0,
			"byteLength":288,
			"byteOffset":3216,
			"target":34962
		},
		{
			"buffer":0,
			"byteLength":288,
			"byteOffset":3504,
			"target":34962
		},
		{
			"buffer":0,
			"byteLength":192,
			"byteOffset":3792,
			"target":34962
		},
		{
			"buffer":0,
			"byteLength":48,
			"byteOffset":3984,
			"target":34962
		},
		{
			"buffer":0,
			"byteLength":48,
			"byteOffset":4032,
			"target":34962
		},
		{
			"buffer":0,
			"byteLength":32,
			"byteOffset":4080,
			"target":34962
		},
		{
			"buffer":0,
			"byteLength":12,
			"byteOffset":4112,
			"target":34963
		},
		{
			"buffer":0,
			"byteLength":288,
			"byteOffset":4124,
			"target":34962
		},
		{
			"buffer":0,
			"byteLength":288,
			"byteOffset":4412,
			"target":34962
		},
		{
			"buffer":0,
			"byteLength":192,
			"byteOffset":4700,
			"target":34962
		},
		{
			"buffer":0,
			"byteLength":4,
			"byteOffset":4892
		},
		{
			"buffer":0,
			"byteLength":12,
			"byteOffset":4896
		},
		{
			"buffer":0,
			"byteLength":16,
			"byteOffset":4908
		},
		{
			"buffer":0,
			"byteLength":12,
			"byteOffset":4924
		},
		{
			"buffer":0,
			"byteLength":16,
			"byteOffset":4936
		},
		{
			"buffer":0,
			"byteLength":12,
			"byteOffset":4952
		},
		{
			"buffer":0,
			"byteLength":16,
			"byteOffset":4964
		},
		{
			"buffer":0,
			"byteLength":8,
			"byteOffset":4980
		},
		{
			"buffer":0,
			"byteLength":24,
			"byteOffset":4988
		},
		{
			"buffer":0,
			"byteLength":160,
			"byteOffset":5012
		},
		{
			"buffer":0,
			"byteLength":640,
			"byteOffset":5172
		},
		{
			"buffer":0,
			"byteLength":24,
			"byteOffset":5812
		},
		{
			"buffer":0,
			"byteLength":24,
			"byteOffset":5836
		},
		{
			"buffer":0,
			"byteLength":640,
			"byteOffset":5860
		},
		{
			"buffer":0,
			"byteLength":24,
			"byteOffset":6500
		},
		{
			"buffer":0,
			"byteLength":24,
			"byteOffset":6524
		},
		{
			"buffer":0,
			"byteLength":640,
			"byteOffset":6548
		},
		{
			"buffer":0,
			"byteLength":24,
			"byteOffset":7188
		},
		{
			"buffer":0,
			"byteLength":164,
			"byteOffset":7212
		},
		{
			"buffer":0,
			"byteLength":492,
			"byteOffset":7376
		},
		{
			"buffer":0,
			"byteLength":656,
			"byteOffset":7868
		},
		{
			"buffer":0,
			"byteLength":8,
			"byteOffset":8524
		},
		{
			"buffer":0,
			"byteLength":24,
			"byteOffset":8532
		},
		{
			"buffer":0,
			"byteLength":492,
			"byteOffset":8556
		},
		{
			"buffer":0,
			"byteLength":656,
			"byteOffset":9048
		},
		{
			"buffer":0,
			"byteLength":24,
			"byteOffset":9704
		},
		{
			"buffer":0,
			"byteLength":492,
			"byteOffset":9728
		},
		{
			"buffer":0,
			"byteLength":656,
			"byteOffset":10220
		},
		{
			"buffer":0,
			"byteLength":24,
			"byteOffset":10876
		},
		{
			"buffer":0,
			"byteLength":492,
			"byteOffset":10900
		},
		{
			"buffer":0,
			"byteLength":656,
			"byteOffset":11392
		},
		{
			"buffer":0,
			"byteLength":24,
			"byteOffset":12048
		},
		{
			"buffer":0,
			"byteLength":492,
			"byteOffset":12072
		},
		{
			"buffer":0,
			"byteLength":32,
			"byteOffset":12564
		},
		{
			"buffer":0,
			"byteLength":24,
			"byteOffset":12596
		},
		{
			"buffer":0,
			"byteLength":492,
			"byteOffset":12620
		},
		{
			"buffer":0,
			"byteLength":656,
			"byteOffset":13112
		},
		{
			"buffer":0,
			"byteLength":24,
			"byteOffset":13768
		}
	],
	"samplers":[
		{
			"magFilter":9729,
			"minFilter":9987
		}
	],
	"buffers":[
		{
			"byteLength":13792,
			"uri":"Robot.bin"
		}
	]
}
